<svg xmlns="http://www.w3.org/2000/svg" version="1.1" xmlns:xlink="http://www.w3.org/1999/xlink" xmlns:svgjs="http://svgjs.dev/svgjs" width="1000" height="1000" viewBox="0 0 1000 1000"><rect width="1000" height="1000" fill="#ffffff"></rect><g transform="matrix(0.7,0,0,0.7,149.57576233577032,407.99145811461494)"><svg viewBox="0 0 396 104" data-background-color="#ffffff" preserveAspectRatio="xMidYMid meet" height="262" width="1000" xmlns="http://www.w3.org/2000/svg" xmlns:xlink="http://www.w3.org/1999/xlink"><g id="tight-bounds" transform="matrix(1,0,0,1,0.23999730719276613,0.17496377360984638)"><svg viewBox="0 0 395.52 103.6500724527803" height="103.6500724527803" width="395.52"><g><svg viewBox="0 0 570.2330329784126 149.43541460148947" height="103.6500724527803" width="395.52"><g><rect width="4.172985664863502" height="149.43541460148947" x="159.6160010704509" y="0" fill="#000000" opacity="1" stroke-width="0" stroke="transparent" fill-opacity="1" class="rect-o-0" data-fill-palette-color="primary" rx="1%" id="o-0" data-palette-color="#8dbdff"></rect></g><g transform="matrix(1,0,0,1,174.71303297841254,0.3717298870683692)"><svg viewBox="0 0 395.52 148.69195482735273" height="148.69195482735273" width="395.52"><g id="textblocktransform"><svg viewBox="0 0 395.52 148.69195482735273" height="148.69195482735273" width="395.52" id="textblock"><g><svg viewBox="0 0 395.52 148.69195482735273" height="148.69195482735273" width="395.52"><g transform="matrix(1,0,0,1,0,0)"><svg width="395.52" viewBox="1.8099989891052246 -36.040000915527344 362.3999938964844 132.57000732421875" height="148.69195482735273" data-palette-color="#8dbdff"><svg></svg><svg></svg><svg></svg><g class="undefined-text-0" data-fill-palette-color="primary" id="text-0"><path xmlns="http://www.w3.org/2000/svg" d="M22.19-9.16v0c0-1.56-0.55-2.763-1.65-3.61-1.093-0.847-3.073-1.7-5.94-2.56-2.867-0.867-5.147-1.827-6.84-2.88v0c-3.233-2.033-4.85-4.687-4.85-7.96v0c0-2.867 1.167-5.227 3.5-7.08 2.333-1.86 5.363-2.79 9.09-2.79v0c2.473 0 4.68 0.457 6.62 1.37 1.933 0.913 3.453 2.213 4.56 3.9 1.107 1.68 1.66 3.547 1.66 5.6v0h-6.15c0-1.853-0.58-3.307-1.74-4.36-1.167-1.047-2.833-1.57-5-1.57v0c-2.013 0-3.58 0.43-4.7 1.29-1.113 0.86-1.67 2.063-1.67 3.61v0c0 1.307 0.603 2.393 1.81 3.26 1.207 0.873 3.193 1.72 5.96 2.54 2.767 0.82 4.987 1.757 6.66 2.81 1.68 1.047 2.91 2.25 3.69 3.61 0.78 1.36 1.17 2.953 1.17 4.78v0c0 2.96-1.137 5.313-3.41 7.06-2.267 1.753-5.347 2.63-9.24 2.63v0c-2.567 0-4.93-0.477-7.09-1.43-2.153-0.953-3.83-2.267-5.03-3.94-1.193-1.68-1.79-3.633-1.79-5.86v0h6.17c0 2.02 0.67 3.583 2.01 4.69 1.333 1.107 3.243 1.66 5.73 1.66v0c2.153 0 3.77-0.437 4.85-1.31 1.08-0.873 1.62-2.027 1.62-3.46zM62.16-18.82v1.97c0 3.487-0.603 6.543-1.81 9.17-1.207 2.627-2.927 4.647-5.16 6.06-2.24 1.407-4.817 2.11-7.73 2.11v0c-2.88 0-5.447-0.703-7.7-2.11-2.253-1.413-3.997-3.42-5.23-6.02-1.227-2.607-1.847-5.61-1.86-9.01v0-2c0-3.467 0.613-6.527 1.84-9.18 1.227-2.653 2.96-4.683 5.2-6.09 2.24-1.413 4.807-2.12 7.7-2.12 2.9 0 5.467 0.697 7.7 2.09 2.24 1.393 3.97 3.397 5.19 6.01 1.22 2.613 1.84 5.653 1.86 9.12zM55.98-16.85v-1.85c0-3.94-0.743-6.96-2.23-9.06-1.493-2.1-3.607-3.15-6.34-3.15v0c-2.667 0-4.753 1.047-6.26 3.14-1.507 2.093-2.277 5.05-2.31 8.87v0 2.05c0 3.907 0.763 6.927 2.29 9.06 1.52 2.133 3.63 3.2 6.33 3.2v0c2.733 0 4.837-1.04 6.31-3.12 1.473-2.087 2.21-5.133 2.21-9.14zM88.79-20v4.94h-14.3v15.06h-6.18v-35.55h22.58v4.98h-16.4v10.57zM121.95-35.55v4.98h-11.09v30.57h-6.12v-30.57h-10.99v-4.98zM148.14-35.55l6.72 26.76 5.47-26.76h6.13l-8.21 35.55h-5.91l-6.76-25.95-6.91 25.95h-5.93l-8.2-35.55h6.12l5.52 26.71 6.79-26.71zM192.72 0l-2.9-8.28h-13.77l-2.88 8.28h-6.42l13.43-35.55h5.54l13.45 35.55zM182.93-28l-5.15 14.74h10.31zM223.39 0l-7.13-13.7h-6.88v13.7h-6.18v-35.55h12.5c4.1 0 7.267 0.92 9.5 2.76 2.227 1.84 3.34 4.503 3.34 7.99v0c0 2.373-0.573 4.36-1.72 5.96-1.147 1.607-2.747 2.84-4.8 3.7v0l7.98 14.82v0.32zM209.38-30.57v11.92h6.34c2.087 0 3.717-0.527 4.89-1.58 1.167-1.047 1.75-2.483 1.75-4.31v0c0-1.9-0.54-3.373-1.62-4.42-1.08-1.04-2.697-1.577-4.85-1.61v0zM255.18-20.75v4.88h-14.6v10.94h17.06v4.93h-23.24v-35.55h23.07v4.98h-16.89v9.82z" fill="#000000" fill-rule="nonzero" stroke="none" stroke-width="1" stroke-linecap="butt" stroke-linejoin="miter" stroke-miterlimit="10" stroke-dasharray="" stroke-dashoffset="0" font-family="none" font-weight="none" font-size="none" text-anchor="none" style="mix-blend-mode: normal" data-fill-palette-color="primary" opacity="1"></path><path xmlns="http://www.w3.org/2000/svg" d="M17.14 31.98h-7.35v13.21h-6.18v-35.55h13.6c3.973 0 7.127 1.033 9.46 3.1 2.34 2.067 3.51 4.803 3.51 8.21v0c0 3.48-1.143 6.19-3.43 8.13-2.287 1.933-5.49 2.9-9.61 2.9zM9.79 14.62v12.41h7.42c2.2 0 3.877-0.517 5.03-1.55 1.153-1.033 1.73-2.527 1.73-4.48v0c0-1.927-0.583-3.463-1.75-4.61-1.173-1.147-2.787-1.737-4.84-1.77v0zM55.76 45.19l-7.13-13.7h-6.88v13.7h-6.18v-35.55h12.5c4.1 0 7.267 0.92 9.5 2.76 2.227 1.84 3.34 4.503 3.34 7.99v0c0 2.373-0.573 4.36-1.72 5.96-1.147 1.607-2.747 2.84-4.8 3.7v0l7.99 14.82v0.32zM41.75 14.62v11.92h6.35c2.08 0 3.707-0.527 4.88-1.58 1.173-1.047 1.76-2.483 1.76-4.31v0c0-1.9-0.543-3.373-1.63-4.42-1.08-1.04-2.693-1.577-4.84-1.61v0zM95.14 26.37v1.97c0 3.487-0.603 6.543-1.81 9.17-1.2 2.627-2.92 4.647-5.16 6.06-2.24 1.407-4.817 2.11-7.73 2.11v0c-2.88 0-5.447-0.703-7.7-2.11-2.253-1.413-3.993-3.42-5.22-6.02-1.233-2.607-1.857-5.61-1.87-9.01v0-2c0-3.467 0.613-6.527 1.84-9.18 1.233-2.653 2.967-4.683 5.2-6.09 2.24-1.413 4.81-2.12 7.71-2.12 2.893 0 5.46 0.697 7.7 2.09 2.24 1.393 3.97 3.397 5.19 6.01 1.22 2.613 1.837 5.653 1.85 9.12zM88.96 28.34v-1.85c0-3.94-0.743-6.96-2.23-9.06-1.487-2.1-3.597-3.15-6.33-3.15v0c-2.673 0-4.763 1.047-6.27 3.14-1.5 2.093-2.267 5.05-2.3 8.87v0 2.05c0 3.907 0.76 6.927 2.28 9.06 1.52 2.133 3.63 3.2 6.33 3.2v0c2.74 0 4.847-1.04 6.32-3.12 1.467-2.087 2.2-5.133 2.2-9.14zM128.54 26.95v13.63c-1.287 1.673-3.07 2.94-5.35 3.8-2.273 0.867-4.86 1.3-7.76 1.3v0c-2.98 0-5.617-0.677-7.91-2.03-2.293-1.347-4.063-3.28-5.31-5.8-1.247-2.513-1.893-5.447-1.94-8.8v0-2.78c0-5.373 1.287-9.57 3.86-12.59 2.567-3.02 6.153-4.53 10.76-4.53v0c3.96 0 7.103 0.977 9.43 2.93 2.327 1.953 3.727 4.77 4.2 8.45v0h-6.06c-0.68-4.28-3.163-6.42-7.45-6.42v0c-2.767 0-4.87 0.997-6.31 2.99-1.44 1.993-2.183 4.92-2.23 8.78v0 2.73c0 3.84 0.81 6.823 2.43 8.95 1.62 2.127 3.87 3.19 6.75 3.19v0c3.16 0 5.407-0.717 6.74-2.15v0-6.96h-7.33v-4.69zM155.52 45.19l-7.13-13.7h-6.89v13.7h-6.17v-35.55h12.5c4.1 0 7.263 0.92 9.49 2.76 2.233 1.84 3.35 4.503 3.35 7.99v0c0 2.373-0.573 4.36-1.72 5.96-1.147 1.607-2.747 2.84-4.8 3.7v0l7.98 14.82v0.32zM141.5 14.62v11.92h6.35c2.087 0 3.713-0.527 4.88-1.58 1.173-1.047 1.76-2.483 1.76-4.31v0c0-1.9-0.54-3.373-1.62-4.42-1.08-1.04-2.697-1.577-4.85-1.61v0zM189.33 45.19l-2.9-8.28h-13.77l-2.88 8.28h-6.43l13.43-35.55h5.54l13.46 35.55zM179.54 17.19l-5.15 14.74h10.3zM199.8 9.64h8.01l10.26 27.25 10.23-27.25h7.98v35.55h-6.15v-11.72l0.61-15.67-10.5 27.39h-4.42l-10.47-27.37 0.61 15.65v11.72h-6.16zM243.58 9.64h8.01l10.25 27.25 10.23-27.25h7.98v35.55h-6.15v-11.72l0.61-15.67-10.5 27.39h-4.42l-10.47-27.37 0.61 15.65v11.72h-6.15zM293.87 9.64v35.55h-6.15v-35.55zM329.66 9.64v35.55h-6.17l-15.85-25.22v25.22h-6.18v-35.55h6.18l15.9 25.32v-25.32zM364.21 26.95v13.63c-1.287 1.673-3.07 2.94-5.35 3.8-2.28 0.867-4.867 1.3-7.76 1.3v0c-2.98 0-5.617-0.677-7.91-2.03-2.293-1.347-4.063-3.28-5.31-5.8-1.247-2.513-1.893-5.447-1.94-8.8v0-2.78c0-5.373 1.283-9.57 3.85-12.59 2.573-3.02 6.163-4.53 10.77-4.53v0c3.953 0 7.097 0.977 9.43 2.93 2.327 1.953 3.723 4.77 4.19 8.45v0h-6.05c-0.687-4.28-3.17-6.42-7.45-6.42v0c-2.767 0-4.87 0.997-6.31 2.99-1.44 1.993-2.183 4.92-2.23 8.78v0 2.73c0 3.84 0.81 6.823 2.43 8.95 1.62 2.127 3.87 3.19 6.75 3.19v0c3.153 0 5.4-0.717 6.74-2.15v0-6.96h-7.33v-4.69z" fill="#000000" fill-rule="nonzero" stroke="none" stroke-width="1" stroke-linecap="butt" stroke-linejoin="miter" stroke-miterlimit="10" stroke-dasharray="" stroke-dashoffset="0" font-family="none" font-weight="none" font-size="none" text-anchor="none" style="mix-blend-mode: normal" data-fill-palette-color="primary" opacity="1"></path><path xmlns="http://www.w3.org/2000/svg" d="M31.86 71.56v1.97c0 3.373-0.533 6.293-1.6 8.76-1.067 2.467-2.56 4.423-4.48 5.87v0l6.1 4.76-4 3.61-7.57-5.98c-0.993 0.213-2.06 0.32-3.2 0.32v0c-2.86 0-5.417-0.703-7.67-2.11-2.26-1.413-4.003-3.42-5.23-6.02-1.227-2.607-1.85-5.61-1.87-9.01v0-2c0-3.467 0.617-6.527 1.85-9.18 1.227-2.653 2.96-4.683 5.2-6.09 2.233-1.413 4.793-2.12 7.68-2.12v0c2.927 0 5.51 0.697 7.75 2.09 2.233 1.393 3.96 3.397 5.18 6.01 1.227 2.613 1.847 5.653 1.86 9.12zM25.66 73.53v-1.85c0-4.007-0.75-7.043-2.25-9.11-1.493-2.067-3.607-3.1-6.34-3.1v0c-2.653 0-4.733 1.047-6.24 3.14-1.507 2.093-2.277 5.043-2.31 8.85v0 2.07c0 3.847 0.753 6.85 2.26 9.01 1.507 2.167 3.617 3.25 6.33 3.25v0c2.753 0 4.867-1.04 6.34-3.12 1.473-2.087 2.21-5.133 2.21-9.14zM57.98 54.83h6.16v23.76c0 3.773-1.21 6.763-3.63 8.97-2.42 2.207-5.64 3.31-9.66 3.31v0c-4.067 0-7.297-1.087-9.69-3.26-2.393-2.173-3.59-5.19-3.59-9.05v0-23.73h6.16v23.78c0 2.38 0.6 4.197 1.8 5.45 1.207 1.253 2.98 1.88 5.32 1.88v0c4.753 0 7.13-2.507 7.13-7.52v0zM77.25 54.83v35.55h-6.16v-35.55zM109.06 58.74l-18.41 26.71h18.99v4.93h-26.46v-4l18.38-26.57h-18.26v-4.98h25.76z" fill="#000000" fill-rule="nonzero" stroke="none" stroke-width="1" stroke-linecap="butt" stroke-linejoin="miter" stroke-miterlimit="10" stroke-dasharray="" stroke-dashoffset="0" font-family="none" font-weight="none" font-size="none" text-anchor="none" style="mix-blend-mode: normal" data-fill-palette-color="primary" opacity="1"></path></g></svg></g></svg></g></svg></g></svg></g><g transform="matrix(1,0,0,1,0,0.3717298870683692)"><svg viewBox="0 0 148.69195482735273 148.69195482735273" height="148.69195482735273" width="148.69195482735273"><g><svg xmlns="http://www.w3.org/2000/svg" xmlns:xlink="http://www.w3.org/1999/xlink" version="1.1" x="0" y="0" viewBox="0 0 64 64" enable-background="new 0 0 64 64" xml:space="preserve" height="148.69195482735273" width="148.69195482735273" class="icon-icon-0" data-fill-palette-color="accent" id="icon-0"><g fill="#8dbdff" data-fill-palette-color="accent"><path d="M58 0H6C2.7 0 0 2.7 0 6v52c0 3.3 2.7 6 6 6h52c3.299 0 6-2.7 6-6V6C64 2.7 61.299 0 58 0zM50.805 7.285h5.986v4.912h-5.986V7.285zM7.209 7.285h23.947v4.912H7.209V7.285zM57.328 56.111H6.671V18.645h50.657V56.111z" fill="#000000" data-fill-palette-color="accent"></path><polygon points="23.662,41.776 14.259,36.063 23.662,30.554 23.662,24.695 10.18,33.638 10.18,38.611 23.662,47.593  " fill="#000000" data-fill-palette-color="accent"></polygon><polygon points="53.82,33.638 40.338,24.695 40.338,30.554 49.74,36.063 40.338,41.776 40.338,47.593 53.82,38.611  " fill="#000000" data-fill-palette-color="accent"></polygon><polygon points="37.379,21.938 33.424,21.938 26.621,50.351 30.501,50.351  " fill="#000000" data-fill-palette-color="accent"></polygon></g></svg></g></svg></g></svg></g><defs></defs></svg><rect width="395.52" height="103.6500724527803" fill="none" stroke="none" visibility="hidden"></rect></g></svg></g></svg>