<?xml version="1.0" standalone="no"?>
<!DOCTYPE svg PUBLIC "-//W3C//DTD SVG 20010904//EN"
 "http://www.w3.org/TR/2001/REC-SVG-20010904/DTD/svg10.dtd">
<svg version="1.0" xmlns="http://www.w3.org/2000/svg"
 width="128.000000pt" height="128.000000pt" viewBox="0 0 128.000000 128.000000"
 preserveAspectRatio="xMidYMid meet">
<metadata>
Created by potrace 1.14, written by Peter Selinger 2001-2017
</metadata>
<g transform="translate(0.000000,128.000000) scale(0.100000,-0.100000)"
fill="#000000" stroke="none">
<path d="M159 1121 l-29 -29 0 -457 0 -457 29 -29 29 -29 457 0 457 0 29 29
29 29 0 457 0 457 -29 29 -29 29 -457 0 -457 0 -29 -29z m469 -126 l-3 -40
-190 0 -190 0 -2 25 c-4 56 -9 55 197 55 l191 0 -3 -40z m408 36 c6 -1 10 -18
9 -38 -1 -36 -2 -38 -35 -39 -52 0 -60 5 -60 41 0 35 10 43 50 39 14 -1 30 -2
36 -3z m19 -476 c1 -159 -1 -295 -2 -300 -2 -7 -142 -10 -406 -9 -221 1 -404
2 -407 3 -4 1 -5 569 -1 594 0 4 184 6 408 5 l408 -3 0 -290z"/>
<path d="M667 793 c-4 -7 -12 -39 -21 -88 -2 -11 -9 -40 -16 -65 -7 -25 -13
-52 -15 -61 -2 -9 -15 -64 -29 -123 -14 -59 -26 -110 -26 -112 0 -3 14 -4 31
-2 l32 3 53 220 c29 120 50 223 48 227 -7 10 -51 10 -57 1z"/>
<path d="M398 679 c-106 -71 -108 -73 -108 -110 0 -38 2 -40 105 -109 57 -38
107 -70 110 -70 3 0 5 20 5 45 0 36 -4 47 -22 56 -12 7 -46 27 -76 46 l-54 35
38 20 c105 56 114 65 114 113 0 25 -1 45 -2 45 -2 0 -51 -32 -110 -71z"/>
<path d="M782 705 l3 -49 73 -44 74 -45 -76 -44 -76 -45 0 -44 c0 -24 2 -44 5
-44 11 0 190 123 203 138 6 9 12 30 12 47 0 33 -7 39 -193 160 l-28 18 3 -48z"/>
</g>
</svg>
